<?xml version="1.0" encoding="UTF-8" standalone="no"?>
<!-- Created with Inkscape (http://www.inkscape.org/) -->

<svg
   xmlns:dc="http://purl.org/dc/elements/1.1/"
   xmlns:cc="http://creativecommons.org/ns#"
   xmlns:rdf="http://www.w3.org/1999/02/22-rdf-syntax-ns#"
   xmlns:svg="http://www.w3.org/2000/svg"
   xmlns="http://www.w3.org/2000/svg"
   xmlns:sodipodi="http://sodipodi.sourceforge.net/DTD/sodipodi-0.dtd"
   xmlns:inkscape="http://www.inkscape.org/namespaces/inkscape"
   width="14.915703mm"
   height="16.434568mm"
   viewBox="0 0 14.915703 16.434568"
   version="1.1"
   id="svg8"
   inkscape:version="0.92.2 5c3e80d, 2017-08-06"
   sodipodi:docname="amanita.svg">
  <defs
     id="defs2" />
  <sodipodi:namedview
     id="base"
     pagecolor="#ffffff"
     bordercolor="#666666"
     borderopacity="1.0"
     inkscape:pageopacity="0.0"
     inkscape:pageshadow="2"
     inkscape:zoom="0.98994949"
     inkscape:cx="141.70594"
     inkscape:cy="-19.136962"
     inkscape:document-units="mm"
     inkscape:current-layer="layer1"
     showgrid="false"
     inkscape:window-width="1280"
     inkscape:window-height="719"
     inkscape:window-x="29"
     inkscape:window-y="4"
     inkscape:window-maximized="0"
     showguides="true"
     inkscape:guide-bbox="true"
     fit-margin-top="0"
     fit-margin-left="0"
     fit-margin-right="0"
     fit-margin-bottom="0" />
  <metadata
     id="metadata5">
    <rdf:RDF>
      <cc:Work
         rdf:about="">
        <dc:format>image/svg+xml</dc:format>
        <dc:type
           rdf:resource="http://purl.org/dc/dcmitype/StillImage" />
        <dc:title></dc:title>
      </cc:Work>
    </rdf:RDF>
  </metadata>
  <g
     inkscape:label="Layer 1"
     inkscape:groupmode="layer"
     id="layer1"
     transform="translate(-11.4204,-10.227673)">
    <g
       id="g1577"
       transform="translate(-38.486812,-22.183371)">
      <ellipse
         ry="1.7038432"
         rx="6.8988948"
         cy="47.141769"
         cx="56.806107"
         id="path1547"
         style="opacity:1;fill:#226f11;fill-opacity:1;stroke:none;stroke-width:0.39332664;stroke-miterlimit:4;stroke-dasharray:none;stroke-opacity:1" />
      <g
         id="g1505">
        <path
           style="fill:#ffeeaa;fill-opacity:1;stroke:none;stroke-width:0.26458332px;stroke-linecap:butt;stroke-linejoin:miter;stroke-opacity:1"
           d="m 57.92485,39.172991 c -0.755949,0.897692 0.903412,3.015947 0.377969,3.968748 -0.52544,0.952801 -2.788245,2.09616 -2.305654,3.590775 0.482591,1.494616 2.980752,1.228591 4.157738,0.519716 1.176986,-0.708875 0.539727,-2.661895 0.699257,-4.535713 0.15953,-1.873818 0.985414,-3.835788 -0.141743,-4.488466 -1.12716,-0.652678 -2.031621,0.04725 -2.78757,0.94494 z"
           id="path1477"
           inkscape:connector-curvature="0"
           sodipodi:nodetypes="czzzzzzc" />
        <path
           style="opacity:1;fill:#ff0000;fill-opacity:1;stroke:none;stroke-width:0.35277778;stroke-miterlimit:4;stroke-dasharray:none;stroke-opacity:1"
           d="m 64.822915,38.180802 c 0,0.808908 -1.128075,2.267857 -5.102679,2.504092 -3.974603,0.236235 -5.811383,-0.839029 -5.811383,-2.456845 0,-1.617816 1.414483,-5.480654 5.669642,-5.38616 4.255159,0.09449 5.24442,4.530005 5.24442,5.338913 z"
           id="path1474"
           inkscape:connector-curvature="0"
           sodipodi:nodetypes="zzzzz" />
        <path
           sodipodi:nodetypes="zzzzz"
           inkscape:connector-curvature="0"
           id="path1479"
           d="m 55.011118,36.179761 c 0.112379,0.06475 0.224751,0.338271 -0.06061,0.909351 -0.285362,0.571083 -0.581787,0.740177 -0.806541,0.610665 -0.224755,-0.129512 -0.648162,-0.635255 -0.294391,-1.218837 0.353769,-0.583582 1.049166,-0.365935 1.161543,-0.301177 z"
           style="opacity:1;fill:#ffffff;fill-opacity:1;stroke:none;stroke-width:0.05656419;stroke-miterlimit:4;stroke-dasharray:none;stroke-opacity:1" />
        <path
           style="opacity:1;fill:#ffffff;fill-opacity:1;stroke:none;stroke-width:0.05656419;stroke-miterlimit:4;stroke-dasharray:none;stroke-opacity:1"
           d="m 61.287672,37.444995 c -0.0138,0.128964 -0.218552,0.507674 -0.856246,0.477513 -0.637698,-0.03016 -0.912183,-0.398299 -0.884578,-0.656225 0.02761,-0.257926 0.319035,-0.849635 0.995818,-0.761957 0.676782,0.08768 0.758809,0.811707 0.745005,0.94067 z"
           id="path1481"
           inkscape:connector-curvature="0"
           sodipodi:nodetypes="czzzzc" />
        <path
           style="opacity:1;fill:#ffffff;fill-opacity:1;stroke:none;stroke-width:0.05435462;stroke-miterlimit:4;stroke-dasharray:none;stroke-opacity:1"
           d="m 59.55211,34.728007 c 0.0544,0.111184 -0.0061,0.385933 -0.548653,0.679855 -0.542641,0.293923 -0.873066,0.266945 -0.981861,0.04457 -0.108798,-0.222377 -0.169799,-0.846388 0.43451,-1.113302 0.604307,-0.266918 1.041607,0.277691 1.096004,0.388881 z"
           id="path1483"
           inkscape:connector-curvature="0"
           sodipodi:nodetypes="zzzzz" />
        <path
           style="opacity:1;fill:#ffffff;fill-opacity:1;stroke:none;stroke-width:0.06065993;stroke-miterlimit:4;stroke-dasharray:none;stroke-opacity:1"
           d="m 57.309456,38.175793 c -0.328183,0.571083 -0.66909,0.740177 -0.92757,0.610665 -0.258482,-0.129512 -0.745426,-0.635255 -0.338568,-1.218837 0.406856,-0.583582 0.823761,-0.486239 1.087801,-0.253932 0.26404,0.232308 0.260391,0.714545 0.178337,0.862104 z"
           id="path1485"
           inkscape:connector-curvature="0"
           sodipodi:nodetypes="czzzc" />
        <path
           sodipodi:nodetypes="czzzc"
           inkscape:connector-curvature="0"
           id="path1487"
           d="m 62.350299,37.88771 c -0.250572,0.609141 -0.175528,0.982208 0.08513,1.107271 0.260662,0.125065 0.958671,0.200396 1.170953,-0.478602 0.212283,-0.678996 -0.119947,-0.949012 -0.465286,-1.01553 -0.34534,-0.06652 -0.724377,0.231637 -0.790801,0.386861 z"
           style="opacity:1;fill:#ffffff;fill-opacity:1;stroke:none;stroke-width:0.06065993;stroke-miterlimit:4;stroke-dasharray:none;stroke-opacity:1" />
        <path
           sodipodi:nodetypes="zzzzz"
           inkscape:connector-curvature="0"
           id="path1489"
           d="m 63.699038,35.89039 c -0.09708,0.0768 -0.378407,0.0761 -0.780964,-0.391559 -0.402575,-0.467743 -0.446467,-0.796349 -0.252307,-0.949936 0.19416,-0.153591 0.790934,-0.345871 1.18023,0.187872 0.389299,0.53374 -0.04988,1.076833 -0.146964,1.153627 z"
           style="opacity:1;fill:#ffffff;fill-opacity:1;stroke:none;stroke-width:0.05435462;stroke-miterlimit:4;stroke-dasharray:none;stroke-opacity:1" />
        <path
           sodipodi:nodetypes="zzzzz"
           inkscape:connector-curvature="0"
           id="path1491"
           d="m 57.055414,33.623217 c 0.06995,0.102121 0.04993,0.382739 -0.444267,0.752231 -0.494283,0.369505 -0.825127,0.390728 -0.965019,0.18648 -0.139896,-0.204249 -0.290741,-0.812819 0.268475,-1.164543 0.559213,-0.351729 1.070865,0.12371 1.140811,0.225836 z"
           style="opacity:1;fill:#ffffff;fill-opacity:1;stroke:none;stroke-width:0.05435462;stroke-miterlimit:4;stroke-dasharray:none;stroke-opacity:1" />
        <path
           style="opacity:1;fill:#ffffff;fill-opacity:1;stroke:none;stroke-width:0.05435462;stroke-miterlimit:4;stroke-dasharray:none;stroke-opacity:1"
           d="m 61.540479,33.494105 c -0.03572,0.118515 -0.266912,0.27882 -0.864584,0.125382 -0.597736,-0.153497 -0.821659,-0.397969 -0.75021,-0.634997 0.07145,-0.237031 0.451056,-0.736039 1.07564,-0.520804 0.624587,0.215229 0.574876,0.911906 0.53915,1.030421 z"
           id="path1493"
           inkscape:connector-curvature="0"
           sodipodi:nodetypes="zzzzz" />
      </g>
      <g
         transform="matrix(0.67675951,0.01703126,-0.01755949,0.65640095,14.974589,16.010745)"
         id="g1527">
        <path
           sodipodi:nodetypes="zzzzzcz"
           inkscape:connector-curvature="0"
           id="path1507"
           d="m 57.309456,38.175793 c 0.348629,1.842112 1.080107,3.922734 0.554664,4.875535 -0.52544,0.952801 -1.141338,1.798945 -0.658747,3.29356 0.482591,1.494616 3.560864,0.755468 3.837988,-0.38813 0.277125,-1.143597 -1.130117,-1.346149 -0.970587,-3.219967 0.15953,-1.873818 0.897291,-3.120947 -0.229866,-3.773625 -1.526681,-0.458696 -2.882081,-2.629485 -2.533452,-0.787373 z"
           style="fill:#faf0c6;fill-opacity:1;stroke:none;stroke-width:0.26458332px;stroke-linecap:butt;stroke-linejoin:miter;stroke-opacity:1" />
        <path
           sodipodi:nodetypes="zzzzz"
           inkscape:connector-curvature="0"
           id="path1509"
           d="m 64.181635,38.197441 c 0.0024,0.808845 -0.990644,2.264291 -4.504329,2.488567 -3.513685,0.224276 -5.141019,-0.856422 -5.14588,-2.474112 -0.0049,-1.61769 1.234239,-5.475978 4.996987,-5.368708 3.762749,0.107267 4.650793,4.545408 4.653222,5.354253 z"
           style="opacity:1;fill:#e64343;fill-opacity:1;stroke:none;stroke-width:0.33171144;stroke-miterlimit:4;stroke-dasharray:none;stroke-opacity:1" />
        <path
           style="opacity:1;fill:#ffffff;fill-opacity:1;stroke:none;stroke-width:0.05318642;stroke-miterlimit:4;stroke-dasharray:none;stroke-opacity:1"
           d="m 55.49991,36.167079 c 0.09956,0.06508 0.199743,0.33892 -0.05086,0.909097 -0.250604,0.570182 -0.5122,0.738372 -0.711319,0.608195 -0.19912,-0.130178 -0.575022,-0.637152 -0.263966,-1.219626 0.311054,-0.582475 0.926586,-0.362754 1.026147,-0.297664 z"
           id="path1511"
           inkscape:connector-curvature="0"
           sodipodi:nodetypes="zzzzz" />
        <path
           sodipodi:nodetypes="czzzzc"
           inkscape:connector-curvature="0"
           id="path1513"
           d="m 61.053518,37.451071 c -0.01182,0.128912 -0.191721,0.506977 -0.755669,0.474903 -0.563951,-0.03208 -0.80776,-0.401009 -0.784126,-0.658831 0.02363,-0.257823 0.279542,-0.84861 0.878225,-0.758906 0.598683,0.0897 0.673388,0.813923 0.661569,0.942835 z"
           style="opacity:1;fill:#ffffff;fill-opacity:1;stroke:none;stroke-width:0.05318642;stroke-miterlimit:4;stroke-dasharray:none;stroke-opacity:1" />
        <path
           sodipodi:nodetypes="zzzzz"
           inkscape:connector-curvature="0"
           id="path1515"
           d="m 59.51075,34.729081 c 0.04844,0.111337 -0.0042,0.385884 -0.483083,0.678153 -0.478928,0.29227 -0.771174,0.264301 -0.868041,0.04161 -0.09687,-0.222687 -0.15268,-0.846832 0.380855,-1.11191 0.533534,-0.265082 0.921836,0.280799 0.970269,0.392145 z"
           style="opacity:1;fill:#ffffff;fill-opacity:1;stroke:none;stroke-width:0.0511088;stroke-miterlimit:4;stroke-dasharray:none;stroke-opacity:1" />
        <path
           sodipodi:nodetypes="czzzc"
           inkscape:connector-curvature="0"
           id="path1517"
           d="m 57.538125,38.16986 c -0.288468,0.570053 -0.589394,0.738109 -0.818334,0.60783 -0.228942,-0.130278 -0.661024,-0.637444 -0.303027,-1.219758 0.357993,-0.582315 0.726918,-0.483727 0.961084,-0.250645 0.234165,0.233083 0.232387,0.715271 0.160277,0.862573 z"
           style="opacity:1;fill:#ffffff;fill-opacity:1;stroke:none;stroke-width:0.05703758;stroke-miterlimit:4;stroke-dasharray:none;stroke-opacity:1" />
        <path
           style="opacity:1;fill:#ffffff;fill-opacity:1;stroke:none;stroke-width:0.05703758;stroke-miterlimit:4;stroke-dasharray:none;stroke-opacity:1"
           d="m 61.994436,37.896943 c -0.219728,0.608341 -0.152252,0.981605 0.0786,1.107441 0.230857,0.125838 0.848271,0.203261 1.033934,-0.475047 0.185663,-0.678305 -0.108909,-0.949298 -0.414462,-1.016848 -0.305555,-0.06756 -0.639808,0.229442 -0.698075,0.384454 z"
           id="path1519"
           inkscape:connector-curvature="0"
           sodipodi:nodetypes="czzzc" />
        <path
           style="opacity:1;fill:#ffffff;fill-opacity:1;stroke:none;stroke-width:0.0511088;stroke-miterlimit:4;stroke-dasharray:none;stroke-opacity:1"
           d="m 63.181008,35.903831 c -0.0856,0.0765 -0.334364,0.07496 -0.691715,-0.393875 -0.357366,-0.468916 -0.397164,-0.797628 -0.225946,-0.95062 0.171217,-0.152996 0.698315,-0.343467 1.044138,0.191403 0.345827,0.534868 -0.04087,1.0766 -0.126481,1.153096 z"
           id="path1521"
           inkscape:connector-curvature="0"
           sodipodi:nodetypes="zzzzz" />
        <path
           style="opacity:1;fill:#ffffff;fill-opacity:1;stroke:none;stroke-width:0.0511088;stroke-miterlimit:4;stroke-dasharray:none;stroke-opacity:1"
           d="m 57.29982,33.616875 c 0.06215,0.102324 0.0453,0.38286 -0.390565,0.750838 -0.435942,0.367991 -0.728414,0.388219 -0.852722,0.183566 -0.124312,-0.204653 -0.259519,-0.813629 0.233891,-1.163645 0.493406,-0.350022 0.947243,0.126918 1.009396,0.229245 z"
           id="path1523"
           inkscape:connector-curvature="0"
           sodipodi:nodetypes="zzzzz" />
        <path
           sodipodi:nodetypes="zzzzz"
           inkscape:connector-curvature="0"
           id="path1525"
           d="m 61.265184,33.501247 c -0.03122,0.118399 -0.235169,0.277997 -0.7641,0.122776 -0.528987,-0.155281 -0.727717,-0.400407 -0.665252,-0.637201 0.06246,-0.236799 0.396618,-0.734627 0.94953,-0.517532 0.552914,0.217088 0.511052,0.913562 0.479818,1.031959 z"
           style="opacity:1;fill:#ffffff;fill-opacity:1;stroke:none;stroke-width:0.0511088;stroke-miterlimit:4;stroke-dasharray:none;stroke-opacity:1" />
        <path
           sodipodi:nodetypes="ssssss"
           inkscape:connector-curvature="0"
           id="path1531"
           d="m 65.179719,46.745415 c -0.05439,0.784696 -2.135722,0.546917 -3.754045,0.538009 -0.926674,-0.0051 -3.131263,0.845328 -2.993492,-0.06192 0.199269,-1.312223 2.987788,-0.958616 2.555328,-1.902951 -0.388065,-0.847392 0.744672,-1.673462 0.777374,-0.898415 0.06472,1.533923 3.469242,1.540326 3.414835,2.325277 z"
           style="opacity:1;fill:#0f4514;fill-opacity:1;stroke:none;stroke-width:0.52911896;stroke-miterlimit:4;stroke-dasharray:none;stroke-opacity:1" />
      </g>
    </g>
  </g>
</svg>
