<?xml version="1.0" encoding="UTF-8" standalone="no"?>
<!-- Created with Inkscape (http://www.inkscape.org/) -->

<svg
   xmlns:dc="http://purl.org/dc/elements/1.1/"
   xmlns:cc="http://creativecommons.org/ns#"
   xmlns:rdf="http://www.w3.org/1999/02/22-rdf-syntax-ns#"
   xmlns:svg="http://www.w3.org/2000/svg"
   xmlns="http://www.w3.org/2000/svg"
   xmlns:sodipodi="http://sodipodi.sourceforge.net/DTD/sodipodi-0.dtd"
   xmlns:inkscape="http://www.inkscape.org/namespaces/inkscape"
   width="210mm"
   height="297mm"
   viewBox="0 0 210 297"
   version="1.1"
   id="svg8"
   inkscape:version="0.92.2 5c3e80d, 2017-08-06"
   sodipodi:docname="hermitdb_beard.svg">
  <defs
     id="defs2" />
  <sodipodi:namedview
     id="base"
     pagecolor="#ffffff"
     bordercolor="#666666"
     borderopacity="1.0"
     inkscape:pageopacity="0.0"
     inkscape:pageshadow="2"
     inkscape:zoom="0.7"
     inkscape:cx="407.56549"
     inkscape:cy="934.3554"
     inkscape:document-units="mm"
     inkscape:current-layer="layer1"
     showgrid="false"
     inkscape:window-width="1280"
     inkscape:window-height="719"
     inkscape:window-x="29"
     inkscape:window-y="4"
     inkscape:window-maximized="0"
     showguides="true"
     inkscape:guide-bbox="true" />
  <metadata
     id="metadata5">
    <rdf:RDF>
      <cc:Work
         rdf:about="">
        <dc:format>image/svg+xml</dc:format>
        <dc:type
           rdf:resource="http://purl.org/dc/dcmitype/StillImage" />
        <dc:title></dc:title>
      </cc:Work>
    </rdf:RDF>
  </metadata>
  <g
     inkscape:label="Layer 1"
     inkscape:groupmode="layer"
     id="layer1">
    <g
       id="g906"
       transform="translate(85.07108,0.53453905)">
      <circle
         cy="27.401184"
         cx="21.641291"
         id="path854"
         style="opacity:1;fill:#52b7e3;fill-opacity:1;stroke:none;stroke-width:0.17542247;stroke-miterlimit:4;stroke-dasharray:none;stroke-opacity:1"
         r="16.163652" />
      <ellipse
         ry="4.1600695"
         rx="15.420949"
         cy="43.54665"
         cx="22.423441"
         id="path856"
         style="opacity:1;fill:#5aa02c;fill-opacity:1;stroke:none;stroke-width:0.26777461;stroke-miterlimit:4;stroke-dasharray:none;stroke-opacity:1" />
      <path
         sodipodi:nodetypes="ssssss"
         inkscape:connector-curvature="0"
         id="path858"
         d="m 18.080837,26.051916 c 0,7.073498 -3.49012,10.82466 -5.47076,10.82466 -1.383271,0 -6.0881781,1.694086 -7.4490796,-3.584898 C 4.0384061,28.937091 8.377977,27.567146 7.0351333,26.506622 5.0577975,24.944999 10.649066,11.425353 12.629711,11.425353 c 1.98064,0 5.451126,7.553057 5.451126,14.626563 z"
         style="opacity:1;fill:#08753f;fill-opacity:1;stroke:none;stroke-width:0.27524886;stroke-miterlimit:4;stroke-dasharray:none;stroke-opacity:1" />
      <path
         style="opacity:1;fill:#1b4a34;fill-opacity:1;stroke:none;stroke-width:0.21178122;stroke-miterlimit:4;stroke-dasharray:none;stroke-opacity:1"
         d="m 10.832629,23.480881 c -0.770299,1.026707 2.864659,4.991023 2.556615,10.173051 -0.213427,3.590357 -3.778094,4.615706 -4.791186,4.787495 -1.1412271,0.193516 -4.8232276,0.595107 -6.3007675,-2.94235 -1.2188067,-2.918014 1.955027,-7.795405 0.7758823,-8.356451 -1.7362839,-0.826144 1.968044,-11.155458 3.6021203,-11.432544 1.6340643,-0.277084 5.4128169,6.097411 4.1573359,7.770799 z"
         id="path861"
         inkscape:connector-curvature="0"
         sodipodi:nodetypes="sssssss" />
      <path
         sodipodi:nodetypes="sscscsss"
         inkscape:connector-curvature="0"
         id="path835"
         d="m 34.561023,35.480631 c 0.65448,2.549332 2.832821,4.092532 -0.474617,5.422613 -3.30743,1.330081 -13.518479,2.422811 -15.50139,2.462507 -3.986283,0 -8.392122,-0.05914 -10.978617,-1.016056 -2.5205621,-0.932521 -3.272997,-2.74453 -3.2729955,-4.153679 -1.5e-6,-1.643138 -0.5240804,-3.975425 2.7702774,-4.92235 2.4300454,-0.698499 8.1400671,-0.247395 11.4813351,-0.247395 7.87095,0 14.634104,-2.772623 15.976007,2.45436 z"
         style="opacity:1;fill:#808080;fill-opacity:1;stroke:none;stroke-width:0.26383364;stroke-miterlimit:4;stroke-dasharray:none;stroke-opacity:1" />
      <path
         sodipodi:nodetypes="zsssssssssz"
         inkscape:connector-curvature="0"
         id="path14"
         d="m 30.350004,28.34804 c 0.445761,2.059535 -0.54195,2.30331 0.330926,3.578717 1.539614,2.249617 2.106989,7.894754 1.48678,9.90448 -0.516645,1.674128 -3.252259,2.196387 -4.597318,2.196387 -0.923765,0 -1.984298,-0.638617 -4.774846,-0.500957 -2.495302,0.123095 -8.313562,1.547334 -10.673251,0.126171 -1.745458,-1.051233 0.708809,-5.974131 0.106798,-6.807821 -0.538545,-0.745809 -2.3533797,-2.909697 -1.966612,-4.943611 0.567851,-2.986184 0.193719,-5.586589 1.827249,-8.080652 2.229185,-3.403507 8.260602,-3.626822 11.084122,-2.72835 7.107782,2.261768 6.730391,5.196101 7.176152,7.255636 z"
         style="opacity:1;fill:#483737;fill-opacity:1;stroke:none;stroke-width:0.25116429;stroke-miterlimit:4;stroke-dasharray:none;stroke-opacity:1" />
      <ellipse
         ry="4.0217481"
         rx="2.9703462"
         cy="20.404249"
         cx="25.225828"
         id="path10"
         style="opacity:1;fill:#ffccaa;fill-opacity:1;stroke:none;stroke-width:0.20812108;stroke-miterlimit:4;stroke-dasharray:none;stroke-opacity:1"
         transform="rotate(4.6231011)" />
      <path
         style="fill:#ffffff;fill-opacity:1;stroke:none;stroke-width:0.26458332px;stroke-linecap:butt;stroke-linejoin:miter;stroke-opacity:1"
         d="m 20.486544,21.091052 c 0.836773,1.765767 0.555084,3.427539 3.256852,3.489733 1.895171,0.04363 2.562342,-1.449399 2.750978,-2.760474 0.0377,2.64308 0.313139,4.763249 -0.087,6.29706 -0.367254,1.407777 -0.720222,2.320322 -1.3311,2.717329 -0.950161,0.617505 -0.774855,2.883912 -1.438242,6.572141 -0.152226,0.846333 -1.12548,3.581434 0.08243,3.589482 -1.349205,1.455228 -3.097854,-0.718024 -3.143716,-2.791829 -0.04429,-2.002765 -0.618168,-4.946592 -1.481495,-7.45669 -0.825644,-2.400533 -0.147475,-7.803587 1.391286,-9.656752 z"
         id="path851"
         inkscape:connector-curvature="0"
         sodipodi:nodetypes="cscssscsscc" />
      <ellipse
         style="opacity:1;fill:#310b0b;fill-opacity:1;stroke:none;stroke-width:0.23503157;stroke-miterlimit:4;stroke-dasharray:none;stroke-opacity:1"
         id="ellipse833"
         cx="28.605494"
         cy="32.971508"
         rx="1.6104624"
         ry="4.6415768"
         transform="rotate(5.4020079)" />
      <path
         sodipodi:nodetypes="sssss"
         inkscape:connector-curvature="0"
         id="ellipse850"
         d="m 32.612598,38.174488 c 0.482846,3.030227 -1.125052,5.145704 -2.630741,5.316299 -1.505688,0.170596 -4.984095,1.153029 -3.845346,-1.696306 1.257908,-3.147492 1.493935,-8.790016 3.3776,-9.228171 1.47592,-0.34331 2.615641,2.577951 3.098487,5.608178 z"
         style="opacity:1;fill:#310b0b;fill-opacity:1;stroke:none;stroke-width:0.33511484;stroke-miterlimit:4;stroke-dasharray:none;stroke-opacity:1" />
      <ellipse
         transform="matrix(0.99820268,0.05992843,-0.0364556,0.99933527,0,0)"
         ry="5.7121282"
         rx="1.4557487"
         cy="36.428345"
         cx="31.173862"
         id="ellipse844"
         style="opacity:1;fill:#ffccaa;fill-opacity:1;stroke:none;stroke-width:0.33933765;stroke-miterlimit:4;stroke-dasharray:none;stroke-opacity:1" />
      <path
         inkscape:connector-curvature="0"
         id="path840"
         d="m 30.28446,44.355805 a 0.95936896,1.8282987 88.963721 0 1 -1.899718,-0.895445 0.95936896,1.8282987 88.963721 0 1 1.753518,-1.020067 0.95936896,1.8282987 88.963721 0 1 1.899718,0.895452 0.95936896,1.8282987 88.963721 0 1 -1.753518,1.02006 z"
         style="opacity:1;fill:#ffccaa;fill-opacity:1;stroke:none;stroke-width:0.21894152;stroke-miterlimit:4;stroke-dasharray:none;stroke-opacity:1" />
      <rect
         transform="rotate(-12.426401)"
         y="16.987024"
         x="14.876548"
         height="32.706757"
         width="1.4345069"
         id="rect17"
         style="opacity:1;fill:#d38d5f;fill-opacity:1;stroke:none;stroke-width:0.26777461;stroke-miterlimit:4;stroke-dasharray:none;stroke-opacity:1" />
      <path
         sodipodi:nodetypes="ssssss"
         inkscape:connector-curvature="0"
         id="ellipse848"
         d="m 19.675538,39.921426 c 0.538368,2.651398 2.999142,2.840504 2.185023,3.754403 -1.12457,1.262393 -7.434678,0.550957 -8.207924,0.434936 -1.333031,-0.200008 -2.724593,-2.829646 0.191416,-6.226294 2.095556,-2.440953 2.465723,-5.041335 3.798754,-4.841325 1.333031,0.20001 0.977048,1.679168 2.032731,6.87828 z"
         style="opacity:1;fill:#310b0b;fill-opacity:1;stroke:none;stroke-width:0.32379577;stroke-miterlimit:4;stroke-dasharray:none;stroke-opacity:1" />
      <path
         inkscape:connector-curvature="0"
         id="path19"
         d="m 20.029686,19.599302 a 1.4345069,1.8289962 68.439198 0 1 -2.228183,-0.661995 1.4345069,1.8289962 68.439198 0 1 1.173854,-2.006265 1.4345069,1.8289962 68.439198 0 1 2.228175,0.662002 1.4345069,1.8289962 68.439198 0 1 -1.173846,2.006258 z"
         style="opacity:1;fill:#ffccaa;fill-opacity:1;stroke:none;stroke-width:0.26777461;stroke-miterlimit:4;stroke-dasharray:none;stroke-opacity:1" />
      <ellipse
         transform="rotate(11.150667)"
         ry="5.9674406"
         rx="1.6138202"
         cy="25.721479"
         cx="20.399702"
         id="path829"
         style="opacity:1;fill:#310b0b;fill-opacity:1;stroke:none;stroke-width:0.26649401;stroke-miterlimit:4;stroke-dasharray:none;stroke-opacity:1" />
      <ellipse
         transform="rotate(19.110616)"
         ry="4.3752465"
         rx="1.1834682"
         cy="15.216979"
         cx="23.609848"
         id="path827"
         style="opacity:1;fill:#ffccaa;fill-opacity:1;stroke:none;stroke-width:0.26777461;stroke-miterlimit:4;stroke-dasharray:none;stroke-opacity:1" />
      <path
         style="opacity:1;fill:#ffccaa;fill-opacity:1;stroke:none;stroke-width:0.26777461;stroke-miterlimit:4;stroke-dasharray:none;stroke-opacity:1"
         d="m 24.027477,33.741142 a 1.4345069,1.8289962 52.53615 0 1 -2.324295,-0.02611 1.4345069,1.8289962 52.53615 0 1 0.579186,-2.251126 1.4345069,1.8289962 52.53615 0 1 2.324299,0.02611 1.4345069,1.8289962 52.53615 0 1 -0.57919,2.251118 z"
         id="path831"
         inkscape:connector-curvature="0" />
      <path
         style="opacity:1;fill:#ffccaa;fill-opacity:1;stroke:none;stroke-width:0.22299446;stroke-miterlimit:4;stroke-dasharray:none;stroke-opacity:1"
         d="m 16.320641,45.467429 a 0.99520381,1.8283222 88.892997 0 1 -1.899721,-0.928911 0.99520381,1.8283222 88.892997 0 1 1.753521,-1.058179 0.99520381,1.8283222 88.892997 0 1 1.899715,0.928911 0.99520381,1.8283222 88.892997 0 1 -1.753515,1.058179 z"
         id="path838"
         inkscape:connector-curvature="0" />
      <ellipse
         style="opacity:1;fill:#ffccaa;fill-opacity:1;stroke:none;stroke-width:0.34216237;stroke-miterlimit:4;stroke-dasharray:none;stroke-opacity:1"
         id="ellipse842"
         cx="20.909939"
         cy="36.549793"
         rx="1.4561341"
         ry="5.8060856"
         transform="matrix(0.99180757,0.12774096,-0.10068271,0.99491859,0,0)" />
      <ellipse
         style="opacity:1;fill:#ffccaa;fill-opacity:1;stroke:none;stroke-width:0.17337413;stroke-miterlimit:4;stroke-dasharray:none;stroke-opacity:1"
         id="ellipse846"
         cx="34.04702"
         cy="-24.669657"
         rx="1.1821324"
         ry="1.8362116"
         transform="matrix(-0.00795287,0.99996838,-0.99688545,0.07886313,0,0)" />
    </g>
    <text
       xml:space="preserve"
       style="font-style:normal;font-variant:normal;font-weight:normal;font-stretch:normal;font-size:18.52680206px;line-height:1.25;font-family:'Slabo 27px';-inkscape-font-specification:'Slabo 27px, Normal';font-variant-ligatures:normal;font-variant-caps:normal;font-variant-numeric:normal;font-feature-settings:normal;text-align:start;letter-spacing:0px;word-spacing:0px;writing-mode:lr-tb;text-anchor:start;fill:#000000;fill-opacity:1;stroke:none;stroke-width:0.46317112"
       x="68.052719"
       y="65.856766"
       id="text884"><tspan
         sodipodi:role="line"
         id="tspan882"
         x="68.052719"
         y="65.856766"
         style="font-style:normal;font-variant:normal;font-weight:normal;font-stretch:normal;font-size:18.52680206px;font-family:'Slabo 27px';-inkscape-font-specification:'Slabo 27px, Normal';font-variant-ligatures:normal;font-variant-caps:normal;font-variant-numeric:normal;font-feature-settings:normal;text-align:start;writing-mode:lr-tb;text-anchor:start;stroke-width:0.46317112">HermitDB</tspan></text>
  </g>
</svg>
