<?xml version="1.0" encoding="UTF-8" standalone="no"?>
<!-- Created with Inkscape (http://www.inkscape.org/) -->

<svg
   xmlns:dc="http://purl.org/dc/elements/1.1/"
   xmlns:cc="http://creativecommons.org/ns#"
   xmlns:rdf="http://www.w3.org/1999/02/22-rdf-syntax-ns#"
   xmlns:svg="http://www.w3.org/2000/svg"
   xmlns="http://www.w3.org/2000/svg"
   xmlns:sodipodi="http://sodipodi.sourceforge.net/DTD/sodipodi-0.dtd"
   xmlns:inkscape="http://www.inkscape.org/namespaces/inkscape"
   width="210mm"
   height="297mm"
   viewBox="0 0 210 297"
   version="1.1"
   id="svg8"
   inkscape:version="0.92.2 5c3e80d, 2017-08-06"
   sodipodi:docname="hermitdb.svg">
  <defs
     id="defs2" />
  <sodipodi:namedview
     id="base"
     pagecolor="#ffffff"
     bordercolor="#666666"
     borderopacity="1.0"
     inkscape:pageopacity="0.0"
     inkscape:pageshadow="2"
     inkscape:zoom="0.7"
     inkscape:cx="303.21429"
     inkscape:cy="1054.6774"
     inkscape:document-units="mm"
     inkscape:current-layer="layer1"
     showgrid="false"
     inkscape:window-width="1280"
     inkscape:window-height="719"
     inkscape:window-x="29"
     inkscape:window-y="4"
     inkscape:window-maximized="0" />
  <metadata
     id="metadata5">
    <rdf:RDF>
      <cc:Work
         rdf:about="">
        <dc:format>image/svg+xml</dc:format>
        <dc:type
           rdf:resource="http://purl.org/dc/dcmitype/StillImage" />
        <dc:title></dc:title>
      </cc:Work>
    </rdf:RDF>
  </metadata>
  <g
     inkscape:label="Layer 1"
     inkscape:groupmode="layer"
     id="layer1">
    <g
       id="g906"
       transform="translate(6.4144687,0.53453905)">
      <ellipse
         ry="16.303045"
         rx="16.890968"
         cy="31.495125"
         cx="19.695911"
         id="path854"
         style="opacity:1;fill:#52b7e3;fill-opacity:1;stroke:none;stroke-width:0.18009736;stroke-miterlimit:4;stroke-dasharray:none;stroke-opacity:1" />
      <ellipse
         ry="4.1600695"
         rx="15.420949"
         cy="43.552025"
         cx="20.435036"
         id="path856"
         style="opacity:1;fill:#5aa02c;fill-opacity:1;stroke:none;stroke-width:0.26777461;stroke-miterlimit:4;stroke-dasharray:none;stroke-opacity:1" />
      <path
         sodipodi:nodetypes="ssssss"
         inkscape:connector-curvature="0"
         id="path858"
         d="m 18.610004,26.051916 c 0,7.073498 -3.75739,17.506398 -5.73803,17.506398 -1.383271,0 -5.8209084,-0.310435 -7.1818099,-5.589419 C 4.5675728,33.614308 8.9071437,27.567146 7.5643,26.506622 5.5869642,24.944999 11.178233,11.425353 13.158878,11.425353 c 1.98064,0 5.451126,7.553057 5.451126,14.626563 z"
         style="opacity:1;fill:#08753f;fill-opacity:1;stroke:none;stroke-width:0.27524886;stroke-miterlimit:4;stroke-dasharray:none;stroke-opacity:1" />
      <path
         style="opacity:1;fill:#1b4a34;fill-opacity:1;stroke:none;stroke-width:0.19742599;stroke-miterlimit:4;stroke-dasharray:none;stroke-opacity:1"
         d="M 10.827216,26.863769 C 11.240324,31.858834 9.1557066,39.751842 7.7356583,40.028928 6.7438999,40.222443 3.5441388,40.624035 2.2601153,37.086578 1.2009382,34.168564 3.9590884,29.291173 2.9343787,28.730127 1.4254995,27.903983 4.6446639,17.574669 6.0647219,17.297583 c 1.4200475,-0.277084 4.3493841,4.571116 4.7624941,9.566186 z"
         id="path861"
         inkscape:connector-curvature="0"
         sodipodi:nodetypes="ssssss" />
      <path
         sodipodi:nodetypes="ssccsss"
         inkscape:connector-curvature="0"
         id="path835"
         d="m 31.386021,35.865464 c 0.65448,2.856966 2.832821,4.586387 -0.474617,6.076971 -3.30743,1.490585 -13.518479,2.715177 -15.50139,2.759664 -7.8709491,0 -14.2516137,-2.593881 -14.2516107,-5.793579 -1.5e-6,-1.841418 -0.52408037,-4.455148 2.7702774,-5.51634 2.4300461,-0.782789 8.1400653,-0.277249 11.4813333,-0.277249 7.87095,0 14.634104,-3.107201 15.976007,2.750533 z"
         style="opacity:1;fill:#808080;fill-opacity:1;stroke:none;stroke-width:0.27929905;stroke-miterlimit:4;stroke-dasharray:none;stroke-opacity:1" />
      <path
         sodipodi:nodetypes="sssssssss"
         inkscape:connector-curvature="0"
         id="path14"
         d="m 30.044118,30.00773 c 0,5.585403 2.046244,15.479132 -3.539159,15.479132 -1.049989,0 -2.179487,-1.039521 -5.351336,-0.901861 -2.83626,0.123095 -6.677452,2.182099 -9.35957,0.760936 C 9.8100951,44.294704 9.8276367,38.737041 9.1433679,37.903351 8.5312351,37.157542 7.0516305,35.886557 6.3710097,33.90468 5.4590681,31.249226 6.735493,30.053895 6.735493,28.66024 c 0,-5.58541 8.995369,-8.771674 15.116642,-6.981972 6.437964,1.88229 8.191983,2.744058 8.191983,8.329462 z"
         style="opacity:1;fill:#483737;fill-opacity:1;stroke:none;stroke-width:0.26777461;stroke-miterlimit:4;stroke-dasharray:none;stroke-opacity:1" />
      <ellipse
         ry="4.4469714"
         rx="3.4428165"
         cy="23.854641"
         cx="21.439182"
         id="path10"
         style="opacity:1;fill:#ffccaa;fill-opacity:1;stroke:none;stroke-width:0.23561025;stroke-miterlimit:4;stroke-dasharray:none;stroke-opacity:1" />
      <ellipse
         style="opacity:1;fill:#310b0b;fill-opacity:1;stroke:none;stroke-width:0.23503157;stroke-miterlimit:4;stroke-dasharray:none;stroke-opacity:1"
         id="ellipse833"
         cx="21.25988"
         cy="34.808033"
         rx="1.6138202"
         ry="4.6415768" />
      <rect
         transform="rotate(-12.352443)"
         y="16.643446"
         x="10.656746"
         height="32.706757"
         width="1.4345069"
         id="rect17"
         style="opacity:1;fill:#d38d5f;fill-opacity:1;stroke:none;stroke-width:0.26777461;stroke-miterlimit:4;stroke-dasharray:none;stroke-opacity:1" />
      <path
         sodipodi:nodetypes="ssssss"
         inkscape:connector-curvature="0"
         id="ellipse848"
         d="m 18.617203,40.97976 c 0.254886,1.517469 2.24319,2.368034 1.429071,3.281933 -1.12457,1.262393 -6.30075,1.873873 -7.073996,1.757852 -1.33303,-0.200008 -3.1025682,-1.506729 -0.18656,-4.903377 2.095556,-2.440953 2.231862,-7.248107 3.564893,-7.048097 1.333031,0.20001 1.387812,1.67977 2.266592,6.911689 z"
         style="opacity:1;fill:#310b0b;fill-opacity:1;stroke:none;stroke-width:0.32379577;stroke-miterlimit:4;stroke-dasharray:none;stroke-opacity:1" />
      <path
         inkscape:connector-curvature="0"
         id="path19"
         d="m 16.515224,22.929427 a 1.4345069,1.8289962 68.439198 0 1 -2.228183,-0.661995 1.4345069,1.8289962 68.439198 0 1 1.173854,-2.006265 1.4345069,1.8289962 68.439198 0 1 2.228175,0.662002 1.4345069,1.8289962 68.439198 0 1 -1.173846,2.006258 z"
         style="opacity:1;fill:#ffccaa;fill-opacity:1;stroke:none;stroke-width:0.26777461;stroke-miterlimit:4;stroke-dasharray:none;stroke-opacity:1" />
      <ellipse
         transform="rotate(4.952953)"
         ry="5.9674406"
         rx="1.6138202"
         cy="30.637505"
         cx="15.224777"
         id="path829"
         style="opacity:1;fill:#310b0b;fill-opacity:1;stroke:none;stroke-width:0.26649401;stroke-miterlimit:4;stroke-dasharray:none;stroke-opacity:1" />
      <ellipse
         transform="rotate(18.981881)"
         ry="4.3752465"
         rx="1.1834682"
         cy="19.844442"
         cx="21.508881"
         id="path827"
         style="opacity:1;fill:#ffccaa;fill-opacity:1;stroke:none;stroke-width:0.26777461;stroke-miterlimit:4;stroke-dasharray:none;stroke-opacity:1" />
      <path
         style="opacity:1;fill:#ffccaa;fill-opacity:1;stroke:none;stroke-width:0.26777461;stroke-miterlimit:4;stroke-dasharray:none;stroke-opacity:1"
         d="m 19.794141,33.211975 a 1.4345069,1.8289962 52.53615 0 1 -2.324295,-0.02611 1.4345069,1.8289962 52.53615 0 1 0.579186,-2.251126 1.4345069,1.8289962 52.53615 0 1 2.324299,0.02611 1.4345069,1.8289962 52.53615 0 1 -0.57919,2.251118 z"
         id="path831"
         inkscape:connector-curvature="0" />
      <path
         style="opacity:1;fill:#ffccaa;fill-opacity:1;stroke:none;stroke-width:0.2432393;stroke-miterlimit:4;stroke-dasharray:none;stroke-opacity:1"
         d="m 15.85829,46.769346 a 1.1839968,1.8284941 88.403766 0 1 -1.899721,-1.105232 1.1839968,1.8284941 88.403766 0 1 1.753521,-1.259037 1.1839968,1.8284941 88.403766 0 1 1.899715,1.105232 1.1839968,1.8284941 88.403766 0 1 -1.753515,1.259037 z"
         id="path838"
         inkscape:connector-curvature="0" />
      <path
         sodipodi:nodetypes="sssss"
         inkscape:connector-curvature="0"
         id="ellipse850"
         d="m 29.437595,39.232822 c 0.482846,3.030227 -0.274606,5.05121 -1.780295,5.221805 -1.505688,0.170596 -5.19258,0.488872 -4.317816,-2.452258 0.879932,-2.958504 1.493935,-7.561594 2.999624,-8.377725 1.33221,-0.722094 2.615641,2.577951 3.098487,5.608178 z"
         style="opacity:1;fill:#310b0b;fill-opacity:1;stroke:none;stroke-width:0.33511484;stroke-miterlimit:4;stroke-dasharray:none;stroke-opacity:1" />
      <path
         inkscape:connector-curvature="0"
         id="path840"
         d="m 27.827612,45.886211 a 1.1481788,1.8284535 88.515935 0 1 -1.899718,-1.071765 1.1481788,1.8284535 88.515935 0 1 1.753518,-1.220926 1.1481788,1.8284535 88.515935 0 1 1.899718,1.071773 1.1481788,1.8284535 88.515935 0 1 -1.753518,1.220918 z"
         style="opacity:1;fill:#ffccaa;fill-opacity:1;stroke:none;stroke-width:0.23952919;stroke-miterlimit:4;stroke-dasharray:none;stroke-opacity:1" />
      <ellipse
         style="opacity:1;fill:#ffccaa;fill-opacity:1;stroke:none;stroke-width:0.33933765;stroke-miterlimit:4;stroke-dasharray:none;stroke-opacity:1"
         id="ellipse842"
         cx="20.015335"
         cy="37.681168"
         rx="1.4557487"
         ry="5.7121282"
         transform="matrix(0.99207011,0.1256857,-0.10233881,0.9947496,0,0)" />
      <ellipse
         transform="matrix(0.99753166,-0.07021812,0.09363925,0.99560619,0,0)"
         ry="5.7121282"
         rx="1.4557487"
         cy="41.258518"
         cx="23.52763"
         id="ellipse844"
         style="opacity:1;fill:#ffccaa;fill-opacity:1;stroke:none;stroke-width:0.33933765;stroke-miterlimit:4;stroke-dasharray:none;stroke-opacity:1" />
      <ellipse
         style="opacity:1;fill:#ffccaa;fill-opacity:1;stroke:none;stroke-width:0.17337413;stroke-miterlimit:4;stroke-dasharray:none;stroke-opacity:1"
         id="ellipse846"
         cx="33.182392"
         cy="-20.416195"
         rx="1.1821324"
         ry="1.8362116"
         transform="matrix(-0.00795287,0.99996838,-0.99688545,0.07886313,0,0)" />
    </g>
    <text
       xml:space="preserve"
       style="font-style:normal;font-variant:normal;font-weight:normal;font-stretch:normal;font-size:17.97019005px;line-height:1.25;font-family:'Iowan Old Style';-inkscape-font-specification:'Iowan Old Style, Normal';font-variant-ligatures:normal;font-variant-caps:normal;font-variant-numeric:normal;font-feature-settings:normal;text-align:start;letter-spacing:0px;word-spacing:0px;writing-mode:lr-tb;text-anchor:start;fill:#000000;fill-opacity:1;stroke:none;stroke-width:0.44925469"
       x="47.436863"
       y="45.226143"
       id="text884"><tspan
         sodipodi:role="line"
         id="tspan882"
         x="47.436863"
         y="45.226143"
         style="font-style:normal;font-variant:normal;font-weight:normal;font-stretch:normal;font-size:17.97019005px;font-family:'Iowan Old Style';-inkscape-font-specification:'Iowan Old Style, Normal';font-variant-ligatures:normal;font-variant-caps:normal;font-variant-numeric:normal;font-feature-settings:normal;text-align:start;writing-mode:lr-tb;text-anchor:start;stroke-width:0.44925469">HermitDB</tspan></text>
  </g>
</svg>
